<svg width="15" height="13" viewBox="0 0 15 13" fill="none" xmlns="http://www.w3.org/2000/svg">
<path d="M6.69325 0.886547C6.9926 -0.0347741 8.29602 -0.0347733 8.59537 0.886548L9.48246 3.61682C9.61633 4.02885 10.0003 4.30781 10.4335 4.30781H13.3043C14.273 4.30781 14.6758 5.54741 13.8921 6.11682L11.5695 7.80429C11.2191 8.05894 11.0724 8.5103 11.2063 8.92231L12.0934 11.6527C12.3927 12.574 11.3382 13.3401 10.5545 12.7707L8.2321 11.0833C7.88161 10.8286 7.407 10.8286 7.05651 11.0833L4.73408 12.7707C3.95037 13.3401 2.89588 12.574 3.19523 11.6527L4.08235 8.92231C4.21621 8.5103 4.06956 8.05894 3.71908 7.80429L1.39654 6.11682C0.612842 5.54741 1.01562 4.30781 1.98434 4.30781H4.85509C5.28832 4.30781 5.67228 4.02885 5.80615 3.61682L6.69325 0.886547Z" fill="#FFA858"/>
</svg>
